<svg width="30" height="30" viewBox="0 0 30 30" fill="none" xmlns="http://www.w3.org/2000/svg">
<path d="M3.16615 11.5957C3.39001 11.3739 3.69246 11.2497 4.00755 11.25H25.9926C26.3078 11.2497 26.6103 11.3739 26.8344 11.5956C27.0585 11.8173 27.1858 12.1186 27.1888 12.4338L27.1538 12.7563L24.1251 23.4375C23.9804 23.9369 23.6771 24.3758 23.2611 24.6876C22.845 24.9995 22.3388 25.1675 21.8188 25.1663H8.1788C7.66043 25.1682 7.15571 25.0001 6.74191 24.6879C6.3281 24.3757 6.02801 23.9365 5.88755 23.4375L2.86005 12.7563C2.82749 12.6519 2.81146 12.5431 2.81255 12.4338C2.81519 12.1187 2.9423 11.8174 3.16615 11.5957Z" stroke="#704A24" stroke-width="1.5" stroke-linejoin="round"/>
<path d="M9.375 11.25L15 3.75L20.625 11.25" stroke="#704A24" stroke-width="1.5" stroke-linejoin="round"/>
</svg>
