<svg width="24" height="24" viewBox="0 0 24 24" fill="none" xmlns="http://www.w3.org/2000/svg">
<path d="M2.53292 9.27653C2.71201 9.09913 2.95397 8.99973 3.20604 9H20.794C21.0462 8.99973 21.2883 9.09909 21.4675 9.27647C21.6468 9.45384 21.7487 9.69484 21.751 9.947L21.723 10.205L19.3 18.75C19.1843 19.1496 18.9417 19.5006 18.6089 19.7501C18.276 19.9996 17.871 20.134 17.455 20.133H6.54304C6.12834 20.1345 5.72457 20.0001 5.39353 19.7503C5.06248 19.5006 4.8224 19.1492 4.71004 18.75L2.28804 10.205C2.26199 10.1215 2.24917 10.0345 2.25004 9.947C2.25215 9.69493 2.35384 9.45393 2.53292 9.27653Z" stroke="#704A24" stroke-width="1.5" stroke-linejoin="round"/>
<path d="M7.5 9L12 3L16.5 9" stroke="#704A24" stroke-width="1.5" stroke-linejoin="round"/>
</svg>
