<svg width="24" height="24" viewBox="0 0 24 24" fill="none" xmlns="http://www.w3.org/2000/svg">
<path d="M9.0579 5.91359L9.42284 5.78686C11.0924 5.20711 12.9087 5.20711 14.5783 5.78686L14.9432 5.91359C15.9754 6.272 16.5215 7.39929 16.1631 8.43145C16.1267 8.53623 16.0816 8.63776 16.0282 8.73498C15.2849 10.0882 14.838 11.584 14.7172 13.1232L14.5783 14.894C12.9522 15.691 11.0489 15.691 9.42284 14.894L9.28388 13.1232C9.16309 11.584 8.7162 10.0882 7.97288 8.73498C7.44684 7.77733 7.79672 6.57455 8.75437 6.0485C8.85158 5.9951 8.95312 5.94997 9.0579 5.91359ZM4.68726 14.5093L6.69156 15.6881C7.13454 15.9486 7.70459 15.8061 7.97288 15.3678C8.28485 14.8581 8.76819 14.4762 9.33621 14.2906L9.42284 14.2623L9.34739 13.4488C9.18462 11.6937 8.66271 9.99078 7.81408 8.44588L7.40901 7.70847L6.57194 8.04762C5.17744 8.61263 4.07531 9.72428 3.52232 11.1236C3.02381 12.385 3.51811 13.8216 4.68726 14.5093ZM3.26052 13.6701L3.86467 14.0254L5.07297 14.7361L5.65575 15.0789C5.98024 15.2697 6.09396 15.6841 5.91233 16.0138L4.26744 19.0001C3.15022 17.6062 2.7448 15.7721 3.17045 14.0372L3.26052 13.6701ZM19.3138 14.5093L17.3095 15.6881C16.8666 15.9486 16.2965 15.8061 16.0282 15.3678C15.7162 14.8581 15.2329 14.4762 14.6649 14.2906L14.5783 14.2623L14.6537 13.4488C14.8165 11.6937 15.3384 9.99078 16.187 8.44588L16.5921 7.70847L17.4292 8.04762C18.8237 8.61263 19.9258 9.72428 20.4788 11.1236C20.9773 12.385 20.483 13.8216 19.3138 14.5093ZM20.7406 13.6701L20.1364 14.0254L18.9281 14.7361L18.3453 15.0789C18.0209 15.2697 17.9071 15.6841 18.0888 16.0138L19.7337 19.0001C20.8509 17.6062 21.2563 15.7721 20.8306 14.0372L20.7406 13.6701Z" stroke="#1C140C" stroke-linejoin="round"/>
</svg>
