<svg width="24" height="24" viewBox="0 0 24 24" fill="none" xmlns="http://www.w3.org/2000/svg">
<path d="M6.27344 6.32446L19.7964 9.94793" stroke="#1C140C" stroke-linecap="round"/>
<path d="M8.00161 7.89649C8.02765 7.76163 8.08119 7.63358 8.15889 7.52033C8.2366 7.40708 8.3368 7.31104 8.45325 7.23822C8.5697 7.16539 8.6999 7.11734 8.83574 7.09705C8.97159 7.07676 9.11015 7.08467 9.2428 7.12028L16.8272 9.15253C16.9598 9.18812 17.0836 9.25062 17.191 9.33614C17.2984 9.42166 17.387 9.52837 17.4513 9.64962C17.5157 9.77087 17.5543 9.90407 17.565 10.0409C17.5756 10.1778 17.5579 10.3153 17.5131 10.4451L13.5795 21.8144C13.4968 22.0533 13.3268 22.2521 13.1035 22.3708C12.8802 22.4894 12.6202 22.519 12.376 22.4537L6.44616 20.8648C6.20197 20.7992 5.99167 20.6436 5.8576 20.4292C5.72353 20.2149 5.67564 19.9577 5.72358 19.7094L8.00064 7.89623L8.00161 7.89649Z" stroke="#1C140C" stroke-linecap="round"/>
<path d="M13.8114 5.2386L14.3291 3.30675C14.3977 3.05057 14.5653 2.83215 14.795 2.69954C15.0247 2.56693 15.2976 2.531 15.5538 2.59964L17.0027 2.98787" stroke="#1C140C" stroke-linecap="round"/>
<path d="M9.11378 4.84503C9.21186 4.62922 9.38341 4.45526 9.59783 4.35419C9.81226 4.25313 10.0556 4.23152 10.2845 4.29323L17.3415 6.18416C17.5702 6.24553 17.7696 6.386 17.9044 6.58059C18.0391 6.77518 18.1005 7.01127 18.0776 7.24687L17.8652 9.4303L8.20596 6.84211L9.11378 4.84503Z" stroke="#1C140C" stroke-linecap="round"/>
</svg>
