<svg width="24" height="24" viewBox="0 0 24 24" fill="none" xmlns="http://www.w3.org/2000/svg">
<path d="M12.0003 21C13.5825 20.9999 15.1291 20.5306 16.4446 19.6514C17.7601 18.7723 18.7854 17.5228 19.3908 16.061C19.9962 14.5992 20.1545 12.9907 19.8458 11.439C19.5371 9.88716 18.7751 8.46176 17.6563 7.343C16.0903 5.777 14.0003 5 11.9863 3C9.5003 5 8.70032 10.6 8.70032 12.6C6.70032 11.6 6.34329 7.343 6.34329 7.343C5.22442 8.46182 4.46244 9.88731 4.15374 11.4392C3.84503 12.9911 4.00346 14.5997 4.60898 16.0615C5.21451 17.5234 6.23993 18.7728 7.55558 19.6519C8.87123 20.5309 10.418 21.0001 12.0003 21Z" stroke="#996531" stroke-linecap="round" stroke-linejoin="round"/>
</svg>
