<?xml version="1.0" standalone="no"?>
<!DOCTYPE svg PUBLIC "-//W3C//DTD SVG 20010904//EN"
 "http://www.w3.org/TR/2001/REC-SVG-20010904/DTD/svg10.dtd">
<svg version="1.0" xmlns="http://www.w3.org/2000/svg"
 width="279.000000pt" height="240.000000pt" viewBox="0 0 279.000000 240.000000"
 preserveAspectRatio="xMidYMid meet">

<g transform="translate(0.000000,240.000000) scale(0.100000,-0.100000)"
fill="#000000" stroke="none">
<path d="M690 2281 c0 -64 2 -71 20 -71 17 0 20 7 20 51 l0 50 373 -3 372 -3
80 -28 c208 -73 356 -201 450 -387 114 -227 104 -505 -26 -727 -46 -78 -189
-219 -269 -266 -81 -47 -201 -85 -305 -98 -44 -5 -213 -8 -375 -7 l-295 3 -3
58 c-3 49 -6 57 -22 57 -18 0 -20 -7 -20 -81 l0 -81 383 5 c421 4 440 6 584
72 224 103 386 298 449 540 27 105 25 286 -5 390 -77 275 -269 475 -546 566
-68 22 -84 23 -467 27 l-398 3 0 -70z"/>
<path d="M760 2075 c0 -58 2 -65 20 -65 17 0 20 7 20 45 l0 45 45 0 c38 0 45
3 45 20 0 18 -7 20 -65 20 l-65 0 0 -65z"/>
<path d="M870 1555 c0 -448 0 -455 20 -455 20 0 20 7 20 455 0 448 0 455 -20
455 -20 0 -20 -7 -20 -455z"/>
<path d="M1177 2004 c-4 -4 -7 -209 -7 -456 l0 -448 25 0 25 0 -2 452 c-3 400
-5 453 -18 456 -9 1 -19 0 -23 -4z"/>
<path d="M1330 1985 c0 -20 6 -23 55 -28 77 -8 155 -47 221 -109 246 -233 122
-640 -214 -699 -50 -9 -62 -15 -62 -30 0 -23 32 -25 106 -5 247 66 392 309
329 551 -48 184 -202 317 -392 338 -39 5 -43 3 -43 -18z"/>
<path d="M760 1035 l0 -65 65 0 c58 0 65 2 65 20 0 17 -7 20 -45 20 l-45 0 0
45 c0 38 -3 45 -20 45 -18 0 -20 -7 -20 -65z"/>
<path d="M608 430 c-72 -22 -128 -99 -128 -176 0 -44 28 -111 56 -136 27 -24
88 -48 121 -48 14 0 46 10 71 21 109 53 133 203 46 293 -46 48 -106 64 -166
46z m135 -57 c11 -10 29 -37 39 -61 25 -56 17 -111 -24 -157 -59 -68 -147 -68
-207 0 -36 41 -46 88 -32 141 26 98 152 141 224 77z"/>
<path d="M80 255 l0 -175 81 0 c91 0 135 15 174 62 72 85 48 209 -50 265 -32
18 -56 23 -122 23 l-83 0 0 -175z m188 126 c48 -25 72 -67 72 -126 0 -93 -59
-145 -164 -145 l-56 0 0 145 0 145 55 0 c35 0 70 -7 93 -19z"/>
<path d="M950 304 c0 -111 3 -131 22 -165 38 -67 117 -88 179 -46 57 38 69 75
69 215 0 102 -2 122 -15 122 -12 0 -15 -19 -15 -115 0 -138 -12 -177 -64 -201
-47 -23 -93 -10 -123 35 -21 31 -23 46 -23 157 0 104 -2 124 -15 124 -13 0
-15 -21 -15 -126z"/>
<path d="M1360 256 c0 -148 2 -176 15 -176 12 0 15 25 17 142 l3 142 90 -142
c123 -192 125 -192 125 33 0 149 -2 175 -15 175 -13 0 -15 -23 -15 -147 l0
-146 -93 144 c-51 79 -101 145 -110 147 -15 3 -17 -13 -17 -172z"/>
<path d="M1805 268 c-32 -90 -61 -169 -63 -177 -3 -8 1 -12 13 -10 10 2 23 19
30 39 l12 35 88 0 88 0 12 -35 c7 -20 20 -37 30 -39 12 -2 16 2 13 10 -149
418 -139 411 -223 177z m119 19 l35 -97 -74 0 -75 0 35 96 c19 53 35 99 35
102 0 15 12 -12 44 -101z"/>
<path d="M2100 415 c0 -12 13 -15 60 -15 l60 0 0 -160 c0 -136 2 -160 15 -160
13 0 15 24 15 160 l0 160 60 0 c47 0 60 3 60 15 0 13 -22 15 -135 15 -113 0
-135 -2 -135 -15z"/>
<path d="M2540 333 c60 -98 60 -98 60 -175 0 -63 3 -78 15 -78 12 0 15 16 15
80 0 79 1 81 51 161 61 98 66 109 46 109 -8 0 -36 -34 -62 -75 -25 -41 -51
-73 -56 -70 -5 3 -27 37 -50 75 -28 47 -47 70 -60 70 -16 0 -9 -17 41 -97z"/>
</g>
</svg>
